<svg width="60" height="60" viewBox="0 0 60 60" fill="none" xmlns="http://www.w3.org/2000/svg">
<path d="M45.9375 0H14.0625C6.296 0 0 6.296 0 14.0625V45.9375C0 53.704 6.296 60 14.0625 60H45.9375C53.704 60 60 53.704 60 45.9375V14.0625C60 6.296 53.704 0 45.9375 0Z" fill="white"/>
<path d="M45.9375 0H14.0625C6.296 0 0 6.296 0 14.0625V45.9375C0 53.704 6.296 60 14.0625 60H45.9375C53.704 60 60 53.704 60 45.9375V14.0625C60 6.296 53.704 0 45.9375 0Z" fill="#0A66C2"/>
<path d="M43.2926 51.0199H50.1527C50.4013 51.0199 50.6398 50.9212 50.8156 50.7454C50.9914 50.5697 51.0902 50.3313 51.0902 50.0827L51.0938 35.5884C51.0938 28.0127 49.4613 22.1897 40.6083 22.1897C37.2429 22.0645 34.0692 23.7994 32.3566 26.6962C32.3483 26.7103 32.3355 26.7213 32.3203 26.7274C32.3052 26.7336 32.2884 26.7346 32.2726 26.7303C32.2568 26.726 32.2428 26.7167 32.2328 26.7037C32.2228 26.6908 32.2173 26.6749 32.2172 26.6585V23.8266C32.2172 23.5779 32.1184 23.3395 31.9426 23.1637C31.7668 22.9878 31.5283 22.8891 31.2797 22.8891H24.7695C24.5208 22.8891 24.2824 22.9878 24.1065 23.1637C23.9307 23.3395 23.832 23.5779 23.832 23.8266V50.0812C23.832 50.3299 23.9307 50.5683 24.1065 50.7442C24.2824 50.92 24.5208 51.0187 24.7695 51.0187H31.6291C31.8778 51.0187 32.1162 50.92 32.2921 50.7442C32.4679 50.5683 32.5666 50.3299 32.5666 50.0812V37.1032C32.5666 33.4336 33.2627 29.8798 37.8122 29.8798C42.297 29.8798 42.3551 34.0788 42.3551 37.3409V50.0824C42.3551 50.3311 42.4538 50.5695 42.6297 50.7453C42.8055 50.9212 43.0439 51.0199 43.2926 51.0199ZM8.90625 13.9751C8.90625 16.7559 11.1954 19.0439 13.9763 19.0439C16.7564 19.0437 19.0441 16.7543 19.0441 13.9741C19.0437 11.194 16.7557 8.90625 13.9753 8.90625C11.1942 8.90625 8.90625 11.1945 8.90625 13.9751ZM10.5373 51.0199H17.4061C17.6547 51.0199 17.8932 50.9212 18.069 50.7453C18.2448 50.5695 18.3436 50.3311 18.3436 50.0824V23.8266C18.3436 23.5779 18.2448 23.3395 18.069 23.1637C17.8932 22.9878 17.6547 22.8891 17.4061 22.8891H10.5373C10.2886 22.8891 10.0502 22.9878 9.87435 23.1637C9.69854 23.3395 9.59977 23.5779 9.59977 23.8266V50.0824C9.59977 50.3311 9.69854 50.5695 9.87435 50.7453C10.0502 50.9212 10.2886 51.0199 10.5373 51.0199Z" fill="white"/>
</svg>
