<svg width="60" height="60" viewBox="0 0 60 60" fill="none" xmlns="http://www.w3.org/2000/svg">
<path d="M45.9375 0H14.0625C6.296 0 0 6.296 0 14.0625V45.9375C0 53.704 6.296 60 14.0625 60H45.9375C53.704 60 60 53.704 60 45.9375V14.0625C60 6.296 53.704 0 45.9375 0Z" fill="white"/>
<path d="M45.9375 0H14.0625C6.296 0 0 6.296 0 14.0625V45.9375C0 53.704 6.296 60 14.0625 60H45.9375C53.704 60 60 53.704 60 45.9375V14.0625C60 6.296 53.704 0 45.9375 0Z" fill="#1D9BF0"/>
<path d="M46.7747 21.4244C46.8005 21.7964 46.8005 22.1683 46.8005 22.5438C46.8005 33.9806 38.0939 47.1708 22.1735 47.1708V47.1637C17.4704 47.1705 12.8646 45.8236 8.90625 43.2837C9.59016 43.3659 10.2773 43.4069 10.9664 43.4086C14.8644 43.4116 18.6503 42.1042 21.7158 39.6963C19.9097 39.6622 18.1594 39.0645 16.7096 37.9868C15.2599 36.9092 14.1831 35.4054 13.6298 33.6858C14.9266 33.9358 16.2634 33.8848 17.5373 33.5367C13.4995 32.7208 10.5945 29.1731 10.5945 25.0528V24.9431C11.7982 25.6136 13.1453 25.9851 14.5226 26.0264C10.7196 23.4846 9.54727 18.4251 11.8437 14.4694C14.0166 17.1433 16.7278 19.3303 19.8011 20.8882C22.8743 22.4461 26.2409 23.34 29.6822 23.512C29.3391 22.0351 29.3898 20.4939 29.8292 19.0427C30.2685 17.5915 31.0813 16.2811 32.186 15.2426C35.6721 11.9655 41.1548 12.1336 44.4319 15.6178C46.3702 15.2351 48.2289 14.5245 49.9282 13.5166C49.282 15.5207 47.9299 17.2218 46.1234 18.3035C47.8391 18.1014 49.5147 17.6421 51.0938 16.9411C49.9322 18.6806 48.4696 20.1987 46.7747 21.4244Z" fill="white"/>
</svg>
