<svg width="18" height="18" viewBox="0 0 18 18" fill="none" xmlns="http://www.w3.org/2000/svg">
<path d="M16.001 0C16.5314 0 17.0401 0.210714 17.4152 0.585786C17.7903 0.960859 18.001 1.46957 18.001 2V16C18.001 16.5304 17.7903 17.0391 17.4152 17.4142C17.0401 17.7893 16.5314 18 16.001 18H2.00098C1.47054 18 0.961836 17.7893 0.586763 17.4142C0.21169 17.0391 0.000976563 16.5304 0.000976562 16V2C0.000976562 1.46957 0.21169 0.960859 0.586763 0.585786C0.961836 0.210714 1.47054 0 2.00098 0H16.001ZM15.501 15.5V10.2C15.501 9.33539 15.1575 8.5062 14.5461 7.89483C13.9348 7.28346 13.1056 6.94 12.241 6.94C11.391 6.94 10.401 7.46 9.92098 8.24V7.13H7.13098V15.5H9.92098V10.57C9.92098 9.8 10.541 9.17 11.311 9.17C11.6823 9.17 12.0384 9.3175 12.3009 9.58005C12.5635 9.8426 12.711 10.1987 12.711 10.57V15.5H15.501ZM3.88098 5.56C4.32654 5.56 4.75386 5.383 5.06892 5.06794C5.38398 4.75288 5.56098 4.32556 5.56098 3.88C5.56098 2.95 4.81098 2.19 3.88098 2.19C3.43276 2.19 3.0029 2.36805 2.68597 2.68499C2.36903 3.00193 2.19098 3.43178 2.19098 3.88C2.19098 4.81 2.95098 5.56 3.88098 5.56ZM5.27098 15.5V7.13H2.50098V15.5H5.27098Z" fill="white"/>
</svg>
