<svg width="22" height="17" viewBox="0 0 22 17" fill="none" xmlns="http://www.w3.org/2000/svg">
<path d="M21.461 2C20.691 2.35 19.861 2.58 19.001 2.69C19.881 2.16 20.561 1.32 20.881 0.31C20.051 0.81 19.131 1.16 18.161 1.36C17.371 0.5 16.261 0 15.001 0C12.651 0 10.731 1.92 10.731 4.29C10.731 4.63 10.771 4.96 10.841 5.27C7.28102 5.09 4.11102 3.38 2.00102 0.79C1.63102 1.42 1.42102 2.16 1.42102 2.94C1.42102 4.43 2.17102 5.75 3.33102 6.5C2.62102 6.5 1.96102 6.3 1.38102 6V6.03C1.38102 8.11 2.86102 9.85 4.82102 10.24C4.19174 10.4122 3.53111 10.4362 2.89102 10.31C3.16262 11.1625 3.69455 11.9084 4.41203 12.4429C5.12951 12.9775 5.99646 13.2737 6.89102 13.29C5.37465 14.4904 3.49501 15.1393 1.56102 15.13C1.22102 15.13 0.881016 15.11 0.541016 15.07C2.44102 16.29 4.70102 17 7.12102 17C15.001 17 19.331 10.46 19.331 4.79C19.331 4.6 19.331 4.42 19.321 4.23C20.161 3.63 20.881 2.87 21.461 2Z" fill="white"/>
</svg>
